<?xml version="1.0" standalone="no"?><!DOCTYPE svg PUBLIC "-//W3C//DTD SVG 1.1//EN"
        "http://www.w3.org/Graphics/SVG/1.1/DTD/svg11.dtd">
<svg class="icon" width="128px" height="128.00px" viewBox="0 0 1024 1024" version="1.1"
     xmlns="http://www.w3.org/2000/svg">
    <path fill="#2c2c2c"
          d="M217.6 304h467.2v57.6H217.6zM217.6 419.2h467.2v57.6H217.6zM217.6 531.2h467.2v57.6H217.6zM217.6 643.2h233.6v57.6H217.6zM953.6 608l-41.6-38.4c-12.8-9.6-25.6-16-41.6-16s-28.8 6.4-41.6 16l-249.6 240c-12.8 9.6-44.8 54.4-44.8 67.2l-28.8 124.8 128-28.8s57.6-32 70.4-44.8l249.6-240c22.4-22.4 22.4-57.6 0-80z m-268.8 300.8c-3.2 3.2-16 9.6-28.8 19.2l-76.8-73.6c6.4-9.6 16-19.2 22.4-25.6l188.8-182.4 83.2 80-188.8 182.4z m0 0M499.2 921.6L192 918.4c-38.4 0-70.4-28.8-70.4-67.2V182.4c0-38.4 32-67.2 70.4-67.2h582.4c38.4 0 70.4 28.8 70.4 67.2v345.6h60.8V182.4c0-70.4-57.6-124.8-128-124.8H192c-70.4 0-128 54.4-128 124.8v665.6c0 70.4 57.6 124.8 128 124.8h304l3.2-51.2z"/>
</svg>