<?xml version="1.0" standalone="no"?><!DOCTYPE svg PUBLIC "-//W3C//DTD SVG 1.1//EN"
        "http://www.w3.org/Graphics/SVG/1.1/DTD/svg11.dtd">
<svg class="icon" width="128px" height="128.00px" viewBox="0 0 1024 1024" version="1.1"
     xmlns="http://www.w3.org/2000/svg">
    <path
          d="M552.88863652 245.825h-61.30227305L491.54545479 307.37272695h-122.68636348v245.55681826H491.54545479v102.31363653h-122.68636348v61.38409131H491.54545479l0.04090868 61.52727216h61.30227305v-61.52727216h122.68636348V491.54545479h-122.68636347v-122.76818174h122.68636347v-61.38409131h-122.68636347v-61.56818174zM491.54545479 491.54545479h-61.34318174v-122.76818174H491.54545479l0.04090868 113.6454539L491.54545479 491.54545479z m122.6454539 50.03181826l0.06136436 113.6454539H552.90909131V552.90909131h61.34318174l-0.06136436-11.33181826zM512.02045479 62C263.49772695 62 62 263.45681826 62 512.02045479 62 760.54318174 263.47727305 962 512 962s450-201.45681826 450-449.97954521C962.02045479 263.45681826 760.52272695 62 512.02045479 62z m0 838.82045479c-214.56818174 0-388.47272695-174.06818174-388.47272784-388.7795461 0-214.73181826 173.94545479-388.77954521 388.47272784-388.77954521 214.56818174 0 388.45227305 174.04772695 388.45227216 388.77954521-0.02045479 214.67045479-173.90454521 388.77954521-388.45227216 388.7795461z"/>
</svg>