<?xml version="1.0" standalone="no"?><!DOCTYPE svg PUBLIC "-//W3C//DTD SVG 1.1//EN"
        "http://www.w3.org/Graphics/SVG/1.1/DTD/svg11.dtd">
<svg class="icon" width="128px" height="128.00px" viewBox="0 0 1024 1024" version="1.1"
     xmlns="http://www.w3.org/2000/svg">
    <path
          d="M710.4 678.4h-147.2c-14.4 0-25.6 11.2-25.6 25.6 0 14.4 11.2 25.6 25.6 25.6h147.2c14.4 0 25.6-11.2 25.6-25.6 0-12.8-11.2-25.6-25.6-25.6zM603.2 641.6a33.6 33.6 0 1 0 67.2 0 33.6 33.6 0 1 0-67.2 0ZM379.2 552l267.2-1.6c38.4 0 70.4-32 70.4-70.4l-1.6-171.2c0-19.2-8-36.8-20.8-49.6-12.8-12.8-30.4-20.8-49.6-20.8l-265.6 1.6c-19.2 0-36.8 8-49.6 20.8-12.8 12.8-20.8 30.4-20.8 49.6l1.6 171.2c-1.6 38.4 30.4 70.4 68.8 70.4z m-19.2-241.6c0-4.8 1.6-9.6 4.8-12.8 3.2-3.2 8-4.8 12.8-4.8l265.6-1.6c4.8 0 9.6 1.6 12.8 4.8 3.2 3.2 4.8 8 4.8 12.8l1.6 171.2c0 9.6-8 17.6-17.6 17.6l-265.6 1.6c-9.6 0-17.6-8-17.6-17.6l-1.6-171.2zM636.8 734.4c-19.2 0-33.6 14.4-33.6 33.6s14.4 33.6 33.6 33.6c9.6 0 17.6-3.2 24-9.6 6.4-6.4 9.6-14.4 9.6-24 0-17.6-16-33.6-33.6-33.6zM464 654.4c0-6.4-3.2-14.4-8-19.2-9.6-9.6-27.2-9.6-36.8 0l-33.6 33.6-32-32c-9.6-9.6-27.2-9.6-36.8 0-9.6 9.6-9.6 27.2 0 36.8l32 32-33.6 33.6c-4.8 4.8-8 11.2-8 19.2 0 6.4 3.2 14.4 8 19.2 4.8 4.8 11.2 8 19.2 8 6.4 0 14.4-3.2 19.2-8l33.6-33.6 32 32c9.6 9.6 27.2 9.6 36.8 0 4.8-4.8 8-11.2 8-19.2 0-6.4-3.2-14.4-8-19.2l-32-32 33.6-33.6c3.2-4.8 6.4-11.2 6.4-17.6zM768 112H256c-52.8 0-96 43.2-96 96v608c0 52.8 43.2 96 96 96h512c52.8 0 96-43.2 96-96V208c0-52.8-43.2-96-96-96z m32 704c0 17.6-14.4 32-32 32H256c-17.6 0-32-14.4-32-32V208c0-17.6 14.4-32 32-32h512c17.6 0 32 14.4 32 32v608z"/>
</svg>